# xmcd
#
# Track frame offsets:
# 150
# 16027
# 33907
# 59061
# 84451
# 101539
# 117855
# 138933
# 158273
# 181927
# 202213
# 226363
# 248198
#
# Disc length: 3635 seconds
#
#
# Revision: 0
# Processed by: cddbd v1.5.2PL0 Copyright (c) Steve Scherf et al.
# Submitted via: Nero 7, 11, 10, 0 
#
DISCID=a00e310d
DTITLE=Billy Lee Janey - Everyone Has the Blues
DYEAR=1997
DGENRE=Blues
TTITLE0=Magic
TTITLE1=Everyone Has the Blues
TTITLE2=Goodlove
TTITLE3=The Velvet Hammer
TTITLE4=Let Your Hair Down
TTITLE5=Rockin' Chevy
TTITLE6=Evil Kind Woman
TTITLE7=Fire Dance
TTITLE8=Let Me Be Your Fire
TTITLE9=Song About A Woman
TTITLE10=Rocking Horse
TTITLE11=Gotta Get Outta This Place
TTITLE12=Just Play It
EXTD=
EXTT0=Magic
EXTT1=Everyone Has the Blues
EXTT2=Goodlove
EXTT3=The Velvet Hammer
EXTT4=Let Your Hair Down
EXTT5=Rockin' Chevy
EXTT6=Evil Kind Woman
EXTT7=Fire Dance
EXTT8=Let Me Be Your Fire
EXTT9=Song About A Woman
EXTT10=Rocking Horse
EXTT11=Gotta Get Outta This Place
EXTT12=Just Play It
PLAYORDER=
